<svg xmlns="http://www.w3.org/2000/svg" width="1080" height="1920" viewBox="0 0 1080 1920">
  <defs>
    <linearGradient id="bg" x1="0" y1="0" x2="1" y2="1"><stop offset="0" stop-color="#08243C"/><stop offset="1" stop-color="#0B6E6A"/></linearGradient>
    <linearGradient id="hot" x1="0" y1="0" x2="1" y2="1"><stop offset="0" stop-color="#FF7A59"/><stop offset="1" stop-color="#FFC857"/></linearGradient>
    <filter id="s" x="-20%" y="-20%" width="140%" height="140%"><feDropShadow dx="0" dy="16" stdDeviation="22" flood-color="#00121F" flood-opacity="0.24"/></filter>
  </defs>
  <rect width="1080" height="1920" fill="url(#bg)"/>
  <path d="M0 1460 C260 1370 410 1540 640 1460 C820 1395 935 1280 1080 1330 V1920 H0 Z" fill="#FFF5E6"/>
  <circle cx="930" cy="230" r="250" fill="#13B8A6" opacity="0.16"/>
  <g font-family="Arial, Helvetica, sans-serif">
    <text x="74" y="116" fill="#FFF5E6" font-size="40" font-weight="800">MYCITY • LOUISVILLE</text>
    <text x="74" y="318" fill="#FFF5E6" font-size="82" font-weight="900">Los topes</text>
    <text x="74" y="410" fill="#FFF5E6" font-size="82" font-weight="900">que debes conocer</text>

    <g filter="url(#s)">
      <rect x="72" y="520" width="936" height="350" rx="54" fill="#FFFFFF"/>
      <text x="120" y="620" fill="#5B6C7A" font-size="33" font-weight="800">VIVIENDA EXISTENTE</text>
      <text x="120" y="755" fill="#12324A" font-size="112" font-weight="900">$260K</text>
      <rect x="665" y="592" width="270" height="190" rx="40" fill="#E7F8F5"/>
      <path d="M715 680 L800 605 L885 680 V756 H828 V708 H772 V756 H715 Z" fill="#0B7F77"/>
    </g>

    <g filter="url(#s)">
      <rect x="72" y="930" width="936" height="350" rx="54" fill="#FFFFFF"/>
      <text x="120" y="1030" fill="#5B6C7A" font-size="33" font-weight="800">VIVIENDA NUEVA</text>
      <text x="120" y="1165" fill="#12324A" font-size="112" font-weight="900">$331K</text>
      <rect x="665" y="1002" width="270" height="190" rx="40" fill="#FFF0E8"/>
      <path d="M715 1090 L800 1015 L885 1090 V1166 H828 V1118 H772 V1166 H715 Z" fill="#FF7A59"/>
    </g>

    <text x="74" y="1408" fill="#FFF5E6" font-size="40" font-weight="900">IMPORTANTE</text>
    <g fill="#12324A">
      <text x="74" y="1575" font-size="38" font-weight="900">• El portal sigue abierto mientras haya fondos.</text>
      <text x="74" y="1640" font-size="32" font-weight="650">Puede cerrar con poco aviso.</text>
      <text x="74" y="1725" font-size="38" font-weight="900">• La carta de elegibilidad no garantiza fondos.</text>
      <text x="74" y="1790" font-size="32" font-weight="650">La aprobación final depende del proceso completo.</text>
    </g>
  </g>
</svg>