<svg xmlns="http://www.w3.org/2000/svg" width="1080" height="1920" viewBox="0 0 1080 1920">
<defs>
<linearGradient id="bg" x1="0" y1="0" x2="1" y2="1"><stop stop-color="#071827"/><stop offset=".48" stop-color="#0b6670"/><stop offset="1" stop-color="#ff754d"/></linearGradient>
<filter id="sh"><feDropShadow dx="0" dy="18" stdDeviation="24" flood-opacity=".28"/></filter>
</defs>
<rect width="1080" height="1920" fill="url(#bg)"/>
<circle cx="910" cy="200" r="245" fill="#ffd166" opacity=".92"/><circle cx="150" cy="1710" r="300" fill="#22c7c7" opacity=".42"/>
<g filter="url(#sh)"><rect x="70" y="100" width="360" height="70" rx="35" fill="#fff"/><text x="250" y="146" text-anchor="middle" font-family="Arial,Helvetica,sans-serif" font-size="29" font-weight="900" fill="#071827">LOUISVILLE · PRESTON</text></g>
<text x="70" y="360" font-family="Arial,Helvetica,sans-serif" font-size="86" font-weight="900" fill="#fff">LA VILLA LOU</text>
<text x="70" y="455" font-family="Arial,Helvetica,sans-serif" font-size="86" font-weight="900" fill="#fff">FESTIVAL</text>
<text x="70" y="535" font-family="Arial,Helvetica,sans-serif" font-size="36" font-weight="700" fill="#f8f0df">Música · baile · comida · arte · comunidad</text>
<g transform="translate(70 690)" filter="url(#sh)">
<rect width="940" height="430" rx="56" fill="#fff" opacity=".97"/>
<rect x="54" y="56" width="300" height="318" rx="30" fill="#f7e8d3"/>
<rect x="84" y="215" width="240" height="120" rx="14" fill="#ff754d"/><rect x="112" y="158" width="184" height="80" rx="8" fill="#0b6670"/>
<circle cx="178" cy="305" r="24" fill="#071827"/><circle cx="278" cy="305" r="24" fill="#071827"/>
<g transform="translate(408 52)"><rect width="462" height="88" rx="44" fill="#ffd166"/><text x="231" y="57" text-anchor="middle" font-family="Arial,Helvetica,sans-serif" font-size="36" font-weight="900" fill="#071827">DOMINGO 11 OCT</text></g>
<text x="410" y="214" font-family="Arial,Helvetica,sans-serif" font-size="58" font-weight="900" fill="#071827">12 PM–9 PM</text>
<text x="410" y="282" font-family="Arial,Helvetica,sans-serif" font-size="31" font-weight="800" fill="#40505b">Preston Plaza</text>
<text x="410" y="327" font-family="Arial,Helvetica,sans-serif" font-size="29" font-weight="700" fill="#40505b">4132 Outer Loop</text>
<text x="410" y="382" font-family="Arial,Helvetica,sans-serif" font-size="31" font-weight="900" fill="#0b6670">GRATIS · TODA LA FAMILIA</text>
</g>
<g transform="translate(70 1265)"><rect width="940" height="120" rx="60" fill="#ffd166"/><text x="470" y="75" text-anchor="middle" font-family="Arial,Helvetica,sans-serif" font-size="39" font-weight="900" fill="#071827">VENDEDORES Y ARTISTAS: SOLICITUDES ABIERTAS</text></g>
<text x="70" y="1515" font-family="Arial,Helvetica,sans-serif" font-size="42" font-weight="900" fill="#fff">Una celebración de las culturas hispanas.</text>
<text x="70" y="1585" font-family="Arial,Helvetica,sans-serif" font-size="31" font-weight="700" fill="#f8f0df">Guarda la fecha y comparte con tu comunidad.</text>
<g transform="translate(70 1690)"><rect width="560" height="112" rx="56" fill="#ff754d"/><text x="280" y="70" text-anchor="middle" font-family="Arial,Helvetica,sans-serif" font-size="38" font-weight="900" fill="#fff">MYCITY · ENTÉRATE AQUÍ</text></g>
</svg>