<svg xmlns="http://www.w3.org/2000/svg" width="1080" height="1920" viewBox="0 0 1080 1920"><defs><linearGradient id="bg" x1="0" y1="0" x2="1" y2="1"><stop stop-color="#FFF4E1"/><stop offset="1" stop-color="#F3E1C4"/></linearGradient></defs><rect width="1080" height="1920" fill="url(#bg)"/><circle cx="950" cy="190" r="250" fill="#FF6B4A" opacity=".16"/><circle cx="40" cy="1650" r="320" fill="#16C7C2" opacity=".18"/><rect x="72" y="82" rx="28" width="286" height="60" fill="#071A2E"/><text x="215" y="124" text-anchor="middle" font-family="Arial,Helvetica,sans-serif" font-size="28" font-weight="800" fill="#FFF4E1">MYCITY • MOVILIDAD</text><text x="72" y="295" font-family="Arial,Helvetica,sans-serif" font-size="82" font-weight="900" fill="#071A2E">OJO DESPUÉS</text><text x="72" y="390" font-family="Arial,Helvetica,sans-serif" font-size="82" font-weight="900" fill="#071A2E">DE LAS 9 PM</text><rect x="72" y="450" rx="34" width="936" height="120" fill="#FF6B4A"/><text x="540" y="532" text-anchor="middle" font-family="Arial,Helvetica,sans-serif" font-size="62" font-weight="900" fill="#FFFFFF">9 PM — 1 AM</text><text x="72" y="665" font-family="Arial,Helvetica,sans-serif" font-size="40" font-weight="800" fill="#071A2E">CIERRAN LAS RAMPAS A PHILLIPS LANE / GATE 1</text><g font-family="Arial,Helvetica,sans-serif"><g transform="translate(72 740)"><rect width="450" height="185" rx="32" fill="#071A2E"/><text x="34" y="66" font-size="42" font-weight="900" fill="#16C7C2">I-264 ESTE</text><text x="34" y="122" font-size="31" font-weight="700" fill="#FFF4E1">→ Phillips Ln / Gate 1</text></g><g transform="translate(558 740)"><rect width="450" height="185" rx="32" fill="#071A2E"/><text x="34" y="66" font-size="42" font-weight="900" fill="#FFB13B">I-264 OESTE</text><text x="34" y="122" font-size="31" font-weight="700" fill="#FFF4E1">→ Phillips Ln / Gate 1</text></g><g transform="translate(72 965)"><rect width="450" height="185" rx="32" fill="#0D3850"/><text x="34" y="66" font-size="42" font-weight="900" fill="#16C7C2">I-65 NORTE</text><text x="34" y="122" font-size="31" font-weight="700" fill="#FFF4E1">→ Phillips Ln / Gate 1</text></g><g transform="translate(558 965)"><rect width="450" height="185" rx="32" fill="#0D3850"/><text x="34" y="66" font-size="42" font-weight="900" fill="#FFB13B">I-65 SUR</text><text x="34" y="122" font-size="31" font-weight="700" fill="#FFF4E1">→ Phillips Ln / Gate 1</text></g></g><rect x="72" y="1225" rx="38" width="936" height="255" fill="#16C7C2"/><text x="112" y="1308" font-family="Arial,Helvetica,sans-serif" font-size="42" font-weight="900" fill="#071A2E">TODO EL DÍA</text><text x="112" y="1372" font-family="Arial,Helvetica,sans-serif" font-size="34" font-weight="700" fill="#071A2E">Phillips Lane entre Crittenden Dr. y Freedom Way</text><text x="112" y="1430" font-family="Arial,Helvetica,sans-serif" font-size="31" fill="#071A2E">queda restringida a negocios, hoteles y residentes.</text><path d="M160 1625 H915" stroke="#FF6B4A" stroke-width="20" stroke-linecap="round"/><path d="M805 1555 L920 1625 L805 1695" fill="none" stroke="#FF6B4A" stroke-width="20" stroke-linecap="round" stroke-linejoin="round"/><text x="72" y="1780" font-family="Arial,Helvetica,sans-serif" font-size="43" font-weight="900" fill="#071A2E">EVITA IMPROVISAR CERCA DE GATE 1</text><text x="72" y="1840" font-family="Arial,Helvetica,sans-serif" font-size="28" fill="#49616D">Cierres oficiales LMPD • Sep 24–27, 2026</text></svg>