<svg xmlns="http://www.w3.org/2000/svg" width="1080" height="1920" viewBox="0 0 1080 1920">
  <defs>
    <linearGradient id="bg" x1="0" y1="0" x2="1" y2="1">
      <stop offset="0%" stop-color="#0d1b1e"/>
      <stop offset="55%" stop-color="#15353b"/>
      <stop offset="100%" stop-color="#1f5a60"/>
    </linearGradient>
    <linearGradient id="street" x1="0" y1="0" x2="0" y2="1">
      <stop offset="0%" stop-color="#d7d9d5"/>
      <stop offset="100%" stop-color="#b8bfbb"/>
    </linearGradient>
    <filter id="shadow" x="-20%" y="-20%" width="140%" height="140%">
      <feDropShadow dx="0" dy="18" stdDeviation="22" flood-color="#000000" flood-opacity="0.28"/>
    </filter>
  </defs>

  <rect width="1080" height="1920" fill="url(#bg)"/>

  <circle cx="900" cy="180" r="230" fill="#6cc6b4" opacity="0.12"/>
  <circle cx="160" cy="500" r="180" fill="#f4c86b" opacity="0.10"/>

  <text x="78" y="105" font-family="Arial, Helvetica, sans-serif" font-size="34" font-weight="700" fill="#b7e8dd" letter-spacing="3">MYCITY · LOCAL DESK</text>

  <text x="78" y="255" font-family="Arial, Helvetica, sans-serif" font-size="94" font-weight="800" fill="#ffffff">Mañana:</text>
  <text x="78" y="360" font-family="Arial, Helvetica, sans-serif" font-size="94" font-weight="800" fill="#ffffff">limpia y conecta</text>

  <text x="82" y="444" font-family="Arial, Helvetica, sans-serif" font-size="42" font-weight="600" fill="#d8efea">Sweep &amp; Sip de Brightside · Louisville</text>

  <g filter="url(#shadow)">
    <rect x="68" y="540" width="944" height="470" rx="42" fill="#f7f7f2"/>
    <rect x="118" y="590" width="844" height="110" rx="28" fill="#e3f2ed"/>
    <text x="158" y="658" font-family="Arial, Helvetica, sans-serif" font-size="42" font-weight="800" fill="#12363a">SÁBADO 19 DE SEPTIEMBRE</text>

    <text x="126" y="785" font-family="Arial, Helvetica, sans-serif" font-size="52" font-weight="800" fill="#152325">11:00 a.m. – 1:00 p.m.</text>
    <text x="126" y="860" font-family="Arial, Helvetica, sans-serif" font-size="42" font-weight="700" fill="#31484b">1391 Dixie Highway</text>
    <text x="126" y="920" font-family="Arial, Helvetica, sans-serif" font-size="34" fill="#4c6264">Con Stellar Snacks &amp; Blak Koffee</text>
    <text x="126" y="970" font-family="Arial, Helvetica, sans-serif" font-size="30" fill="#6a7778">Registro abierto · actividad comunitaria</text>
  </g>

  <g transform="translate(95 1110)">
    <rect x="0" y="0" width="890" height="410" rx="44" fill="#10262a" stroke="#6cc6b4" stroke-width="3"/>
    <path d="M95 305 C210 210, 330 180, 455 230 C560 272, 645 265, 790 155" fill="none" stroke="#c8d0cd" stroke-width="78" stroke-linecap="round"/>
    <path d="M110 304 C220 219, 332 195, 450 240 C563 283, 650 274, 779 164" fill="none" stroke="url(#street)" stroke-width="56" stroke-linecap="round"/>
    <path d="M138 298 C240 230, 336 220, 440 253 C555 289, 641 285, 757 190" fill="none" stroke="#ffffff" stroke-width="8" stroke-dasharray="28 28" stroke-linecap="round" opacity="0.8"/>

    <g transform="translate(155 78)">
      <rect x="0" y="58" width="92" height="126" rx="18" fill="#f4c86b"/>
      <rect x="20" y="23" width="52" height="45" rx="12" fill="#f4c86b"/>
      <path d="M12 60 L-2 20 L22 10 L35 62" fill="#f4c86b"/>
      <path d="M80 60 L95 25 L72 13 L58 63" fill="#f4c86b"/>
      <circle cx="30" cy="190" r="12" fill="#10262a"/>
      <circle cx="63" cy="190" r="12" fill="#10262a"/>
    </g>

    <g transform="translate(625 60)">
      <circle cx="0" cy="0" r="36" fill="#6cc6b4"/>
      <circle cx="96" cy="40" r="30" fill="#f4c86b"/>
      <circle cx="165" cy="-8" r="26" fill="#9bd8cc"/>
      <line x1="30" y1="5" x2="66" y2="30" stroke="#ffffff" stroke-width="6" opacity="0.8"/>
      <line x1="120" y1="28" x2="140" y2="7" stroke="#ffffff" stroke-width="6" opacity="0.8"/>
    </g>

    <text x="60" y="374" font-family="Arial, Helvetica, sans-serif" font-size="34" font-weight="700" fill="#d9efea">Una forma simple de aportar y conocer comunidad local.</text>
  </g>

  <rect x="78" y="1605" width="924" height="152" rx="32" fill="#f4c86b"/>
  <text x="118" y="1668" font-family="Arial, Helvetica, sans-serif" font-size="35" font-weight="700" fill="#213033">MyCity te cuenta:</text>
  <text x="118" y="1718" font-family="Arial, Helvetica, sans-serif" font-size="32" font-weight="600" fill="#213033">¿Te sumarías a una limpieza de tu barrio?</text>

  <text x="80" y="1845" font-family="Arial, Helvetica, sans-serif" font-size="27" fill="#c9d8d5">Fuente: Louisville Metro · Brightside Louisville</text>
</svg>